# xmcd CD database file
#
# Track frame offsets:
#	150
#	85563
#	174042
#	179826
#	304640
#
# Disc length: 4779 seconds
#
# Revision: 0
# Processed by: cddbd v1.5.2PL0 Copyright (c) Steve Scherf et al.
# Submitted via: CDex 1.51
#
DISCID=2f12a905
DTITLE=Harold Land Quartet - Jazz At The Cellar 1958
DYEAR=1958
DGENRE=Jazz
TTITLE0=Cherokee
TTITLE1=Just friends
TTITLE2=The scene is clean
TTITLE3=Big foot
TTITLE4=Come rain or come shine
EXTD=YEAR: 1958
EXTT0=
EXTT1=
EXTT2=
EXTT3=
EXTT4=
PLAYORDER=
